<?xml version="1.0" standalone="no"?>
<!DOCTYPE svg PUBLIC "-//W3C//DTD SVG 20010904//EN"
 "http://www.w3.org/TR/2001/REC-SVG-20010904/DTD/svg10.dtd">
<svg version="1.0" xmlns="http://www.w3.org/2000/svg"
 width="336.000000pt" height="336.000000pt" viewBox="0 0 336.000000 336.000000"
 preserveAspectRatio="xMidYMid meet">
<metadata>
Created by potrace 1.14, written by Peter Selinger 2001-2017
</metadata>
<g transform="translate(0.000000,336.000000) scale(0.100000,-0.100000)"
fill="#000000" stroke="none">
<path d="M1470 3343 c-76 -9 -268 -56 -349 -85 -47 -17 -131 -53 -186 -80
-461 -232 -782 -648 -897 -1164 -30 -136 -33 -512 -5 -644 74 -344 216 -617
446 -854 237 -243 523 -401 868 -478 85 -19 129 -22 328 -23 204 0 242 3 337
23 262 56 490 162 693 320 314 245 527 587 617 988 19 86 22 129 22 334 1 223
-1 241 -28 354 -36 153 -76 266 -138 391 -232 462 -651 785 -1163 895 -80 18
-140 23 -305 25 -113 2 -221 1 -240 -2z m210 -883 c291 -22 586 -82 815 -164
122 -45 311 -136 352 -170 66 -56 78 -155 26 -217 -62 -74 -130 -78 -246 -15
-164 89 -379 163 -598 205 -415 80 -956 68 -1279 -29 -109 -32 -208 20 -225
119 -7 45 17 113 53 145 31 27 162 63 332 92 250 42 513 53 770 34z m-30 -580
c194 -20 388 -62 565 -121 122 -41 383 -170 418 -207 52 -55 46 -150 -12 -191
-60 -42 -80 -39 -244 42 -324 160 -594 221 -977 221 -233 0 -346 -12 -534 -60
-83 -21 -107 -24 -137 -15 -55 16 -82 52 -87 114 -4 49 -1 57 27 90 35 39 72
53 235 88 203 45 528 61 746 39z m67 -556 c211 -28 371 -77 560 -170 146 -72
183 -104 183 -160 0 -46 -14 -70 -50 -89 -46 -24 -69 -19 -191 44 -370 191
-779 234 -1290 135 -70 -13 -135 -21 -145 -18 -11 4 -31 18 -46 32 -35 33 -39
96 -8 135 25 32 52 40 247 73 267 44 504 50 740 18z"/>
</g>
</svg>
